<?xml version="1.0" standalone="no"?>
<!DOCTYPE svg PUBLIC "-//W3C//DTD SVG 20010904//EN"
 "http://www.w3.org/TR/2001/REC-SVG-20010904/DTD/svg10.dtd">
<svg version="1.0" xmlns="http://www.w3.org/2000/svg"
 width="1024.000000pt" height="1024.000000pt" viewBox="0 0 1024.000000 1024.000000"
 preserveAspectRatio="xMidYMid meet">
<metadata>
Created by potrace 1.14, written by Peter Selinger 2001-2017
</metadata>
<g transform="translate(0.000000,1024.000000) scale(0.100000,-0.100000)"
fill="#000000" stroke="none">
<path d="M4999 9893 c-51 -30 -131 -77 -175 -104 -45 -27 -87 -49 -93 -49 -6
0 -11 -4 -11 -9 0 -5 -8 -11 -17 -14 -18 -6 -94 -48 -103 -57 -3 -3 -19 -12
-35 -21 -17 -9 -75 -42 -130 -74 -55 -32 -113 -66 -129 -74 -17 -9 -35 -20
-40 -24 -19 -13 -339 -197 -344 -197 -3 0 -13 -6 -21 -14 -9 -7 -41 -26 -71
-42 -30 -16 -57 -31 -60 -35 -3 -3 -30 -19 -60 -35 -30 -16 -56 -32 -58 -36
-2 -5 -10 -8 -18 -8 -25 0 -15 -19 19 -36 17 -9 40 -23 50 -32 9 -8 17 -12 17
-7 0 4 6 2 14 -4 14 -12 324 -191 331 -191 1 0 33 -18 69 -40 36 -22 68 -40
72 -40 3 0 25 -14 50 -30 24 -17 44 -28 44 -24 0 4 8 0 18 -8 9 -8 24 -18 32
-22 8 -3 36 -18 61 -34 138 -81 164 -96 169 -97 3 0 16 -8 30 -17 28 -18 274
-158 365 -208 17 -9 48 -27 70 -41 22 -13 47 -22 55 -20 8 1 53 25 98 52 46
27 86 49 88 49 3 0 33 18 68 40 35 22 66 40 69 40 4 0 47 25 97 55 50 30 93
55 95 55 2 0 28 14 57 31 58 34 98 58 168 97 25 14 99 56 164 94 66 37 122 68
125 68 2 0 12 6 20 14 9 8 23 16 31 18 8 2 17 5 20 9 5 5 117 70 215 124 93
51 155 90 155 97 0 3 -12 13 -27 21 -43 21 -124 68 -165 94 -21 12 -39 23 -42
23 -2 0 -48 27 -102 60 -54 33 -102 60 -107 60 -4 0 -13 5 -20 10 -13 12 -387
230 -393 230 -3 0 -40 23 -84 50 -44 28 -81 50 -83 50 -5 0 -258 146 -273 157
-5 4 -23 15 -40 23 -16 9 -54 30 -85 48 l-55 31 -95 -56z"/>
<path d="M6635 8992 c-33 -19 -131 -77 -218 -128 -87 -52 -161 -94 -163 -94
-3 0 -25 -13 -49 -30 -24 -16 -46 -30 -49 -30 -3 0 -49 -26 -103 -58 -54 -33
-128 -76 -165 -96 -38 -21 -68 -42 -68 -47 0 -5 -4 -8 -8 -6 -4 1 -46 -20 -92
-47 -47 -27 -128 -74 -180 -104 -52 -30 -106 -62 -120 -71 -39 -24 -81 -48
-137 -78 -29 -15 -53 -31 -53 -36 0 -5 14 -14 30 -20 17 -6 30 -14 30 -17 0
-4 23 -17 50 -30 28 -13 50 -27 50 -32 0 -4 6 -8 14 -8 8 0 22 -7 30 -16 9 -8
16 -13 16 -9 0 3 24 -9 53 -28 28 -18 59 -36 67 -40 8 -4 33 -18 55 -32 22
-13 54 -31 70 -39 17 -9 44 -24 60 -35 17 -10 48 -28 70 -41 238 -134 341
-195 346 -203 3 -5 10 -9 15 -9 5 -1 18 -6 29 -13 11 -7 51 -30 90 -51 38 -21
90 -51 115 -66 25 -15 52 -31 60 -35 8 -4 35 -19 60 -34 106 -63 186 -107 194
-107 5 0 12 -6 17 -14 5 -7 12 -13 16 -13 4 0 26 -11 48 -24 22 -14 60 -36 85
-49 25 -14 48 -30 52 -36 4 -6 8 -8 8 -4 0 4 24 -7 53 -25 28 -19 59 -37 67
-40 8 -4 33 -18 55 -32 22 -14 47 -28 55 -32 8 -4 31 -16 50 -28 19 -12 55
-33 80 -47 167 -94 318 -183 333 -196 9 -8 17 -11 17 -7 0 4 8 1 18 -7 9 -9
26 -18 37 -22 l21 -6 4 727 c2 401 4 779 4 842 1 67 -3 118 -9 123 -27 22 -84
56 -88 52 -2 -3 -10 2 -17 11 -7 8 -16 15 -20 15 -4 0 -81 43 -171 96 -90 53
-189 110 -219 126 -30 17 -62 37 -71 44 -8 8 -19 14 -23 14 -4 0 -46 23 -94
51 -48 29 -107 63 -132 77 -25 14 -62 36 -82 49 -21 12 -40 23 -44 23 -3 0
-25 13 -48 28 l-41 28 -60 -34z"/>
<path d="M3456 8995 c-20 -14 -39 -25 -42 -25 -5 0 -195 -109 -444 -254 -58
-34 -122 -70 -142 -81 -21 -11 -38 -23 -38 -27 0 -5 -4 -8 -10 -8 -13 0 -270
-147 -293 -168 -17 -15 -18 -54 -13 -847 3 -456 5 -835 6 -842 0 -8 14 -3 36
12 20 14 43 25 50 25 7 0 14 3 16 8 4 9 147 92 159 92 5 0 9 4 9 9 0 5 10 13
22 17 12 3 45 22 74 40 29 19 56 34 59 34 3 0 31 16 61 35 30 19 56 35 59 35
2 0 44 24 92 52 48 29 99 59 113 66 14 7 34 18 45 25 11 7 56 33 100 58 44 25
91 52 105 60 14 8 33 20 43 28 9 8 17 10 17 5 0 -5 4 -4 8 2 4 6 42 30 84 53
43 24 80 47 84 52 3 5 9 7 13 5 4 -3 17 2 27 12 11 9 37 27 59 39 22 11 54 29
72 40 45 26 280 161 333 191 25 14 77 44 115 67 39 23 90 53 115 67 25 14 63
36 85 49 22 12 60 33 85 47 25 13 50 27 55 32 10 7 69 41 135 76 19 11 37 22
40 25 3 3 29 18 57 34 42 22 51 31 42 42 -6 7 -15 13 -20 13 -4 0 -63 33 -131
73 -68 41 -135 80 -150 88 -15 8 -64 37 -110 64 -46 28 -87 52 -93 54 -5 2
-38 22 -73 43 -34 21 -65 38 -68 38 -3 0 -25 14 -49 30 -24 17 -46 30 -50 30
-3 0 -31 16 -61 35 -30 19 -56 35 -59 35 -4 0 -77 44 -130 78 -11 7 -33 19
-50 28 -16 8 -42 22 -57 32 -37 24 -184 110 -238 140 -25 14 -58 34 -75 44
-38 23 -35 23 -79 -7z"/>
<path d="M2350 8355 c-7 -9 -15 -14 -17 -11 -3 2 -20 -6 -39 -19 -19 -13 -48
-30 -64 -37 -17 -7 -30 -16 -30 -20 0 -5 -6 -8 -14 -8 -8 0 -21 -7 -30 -15 -8
-9 -17 -15 -18 -13 -2 1 -14 -5 -28 -14 -43 -27 -151 -88 -155 -88 -3 0 -29
-16 -59 -35 -30 -19 -57 -35 -59 -35 -4 0 -154 -87 -207 -120 -8 -5 -37 -21
-65 -36 -27 -14 -57 -32 -66 -40 -8 -8 -18 -14 -21 -14 -4 0 -39 -19 -80 -43
-40 -24 -100 -59 -133 -77 -33 -18 -63 -38 -67 -44 -4 -6 -8 -8 -8 -4 0 4 -42
-17 -92 -47 -51 -31 -100 -59 -108 -64 -13 -7 -15 -113 -15 -854 0 -465 3
-848 7 -852 4 -4 14 0 23 9 9 9 21 14 26 10 5 -3 12 2 15 10 3 9 10 16 14 16
7 0 69 36 210 120 98 60 151 90 157 90 3 0 14 6 22 14 9 7 36 25 61 38 25 14
68 39 96 56 28 18 56 32 63 32 6 0 11 5 11 10 0 6 7 10 15 10 8 0 15 5 15 12
0 6 3 8 7 5 3 -4 12 -2 19 4 21 17 266 159 276 159 4 0 8 5 8 10 0 6 6 10 13
10 7 0 29 11 50 25 20 14 37 23 37 20 0 -3 6 -1 13 5 18 16 198 120 207 120
31 0 32 30 37 875 3 528 1 845 -5 845 -5 0 -15 -7 -22 -15z"/>
<path d="M7845 7563 c3 -439 5 -823 5 -854 l0 -56 85 -49 c47 -27 108 -63 135
-81 28 -17 50 -30 50 -28 0 4 46 -23 125 -72 11 -7 43 -25 70 -39 28 -15 52
-30 53 -35 2 -5 7 -9 12 -9 5 0 43 -20 84 -45 42 -25 81 -45 86 -45 6 0 10 -4
10 -8 0 -4 12 -13 28 -19 15 -7 36 -18 47 -25 11 -7 31 -20 45 -29 14 -9 45
-28 70 -41 25 -14 68 -38 95 -54 28 -15 52 -32 53 -36 2 -4 7 -8 12 -8 12 0
184 -102 188 -112 2 -4 12 -8 22 -8 10 0 20 -4 22 -8 3 -8 90 -61 118 -73 13
-6 15 85 17 775 0 429 3 806 5 836 4 55 -13 110 -33 110 -5 0 -79 41 -165 90
-85 50 -176 103 -202 117 -26 14 -64 37 -84 50 -21 12 -40 23 -43 23 -2 0 -28
15 -57 33 -29 19 -60 37 -68 40 -8 4 -28 15 -45 26 -16 10 -48 28 -70 41 -22
12 -81 47 -132 76 -50 30 -96 54 -102 54 -6 0 -11 4 -11 8 0 5 -22 19 -50 32
-27 13 -50 27 -50 32 0 4 -5 8 -11 8 -6 0 -45 20 -86 45 -40 25 -76 45 -78 45
-3 0 -35 19 -72 41 -38 23 -71 43 -75 46 -4 2 -5 -355 -3 -794z"/>
<path d="M2330 6493 c-19 -10 -37 -20 -40 -24 -3 -3 -21 -14 -40 -24 -19 -9
-43 -24 -52 -33 -10 -8 -18 -12 -18 -8 0 4 -19 -6 -42 -21 -24 -16 -60 -37
-80 -48 -21 -11 -38 -23 -38 -27 0 -5 -3 -7 -7 -6 -9 3 -120 -58 -145 -80 -10
-8 -18 -12 -18 -8 0 4 -12 -1 -27 -12 -16 -10 -59 -36 -98 -57 -38 -22 -72
-41 -75 -45 -3 -3 -24 -14 -47 -25 -24 -11 -43 -23 -43 -27 0 -5 -6 -8 -14 -8
-8 0 -21 -6 -28 -14 -8 -7 -25 -17 -38 -21 -14 -4 -27 -10 -30 -14 -7 -8 -57
-38 -100 -59 -19 -9 -37 -20 -40 -23 -3 -3 -39 -24 -80 -45 -41 -21 -81 -45
-88 -51 -7 -7 -19 -13 -26 -13 -7 0 -23 -10 -36 -22 -14 -13 -25 -21 -25 -19
0 1 -17 -5 -37 -15 l-38 -18 -1 -175 c0 -97 0 -409 0 -695 0 -486 1 -519 18
-532 10 -7 24 -14 31 -14 6 0 12 -4 12 -9 0 -5 11 -12 25 -15 14 -4 25 -11 25
-17 0 -6 5 -7 10 -4 6 3 10 1 10 -4 0 -6 9 -11 20 -11 11 0 20 -4 20 -9 0 -5
16 -15 35 -22 19 -7 35 -17 35 -21 0 -4 4 -8 8 -8 8 0 298 -163 377 -212 17
-10 42 -23 58 -29 15 -6 27 -15 27 -20 0 -5 3 -8 8 -7 4 1 18 -5 32 -13 68
-43 263 -153 303 -171 15 -7 27 -16 27 -20 0 -4 4 -8 9 -8 5 0 42 -19 83 -43
40 -24 95 -56 121 -70 26 -15 59 -34 72 -43 24 -16 25 -15 26 7 3 141 3 2949
-1 2949 -3 0 -21 -8 -40 -17z"/>
<path d="M7849 6454 c0 -27 0 -263 1 -524 1 -261 2 -901 3 -1422 1 -845 3
-946 17 -935 8 7 24 17 35 23 73 40 145 80 189 107 28 17 67 39 86 49 19 10
42 23 50 28 31 21 477 275 525 299 28 14 52 29 53 34 2 4 10 7 18 7 8 0 14 5
14 10 0 6 4 10 9 10 12 0 355 193 359 202 2 4 10 8 19 8 8 0 22 7 31 16 15 15
16 78 17 667 l0 650 -37 23 c-21 13 -41 24 -45 24 -5 0 -19 9 -33 20 -14 11
-33 20 -42 20 -10 0 -18 3 -18 8 0 4 -21 19 -47 32 -27 14 -50 27 -53 30 -5 5
-25 16 -125 69 -27 14 -51 29 -53 34 -2 4 -9 7 -17 7 -7 0 -18 7 -25 15 -7 8
-16 13 -20 10 -5 -3 -11 -1 -15 5 -4 6 -30 22 -58 37 -29 14 -54 28 -57 32 -3
3 -24 15 -47 26 -24 11 -43 23 -43 28 0 4 -5 7 -10 7 -10 0 -169 88 -180 100
-3 3 -31 18 -62 34 -32 16 -58 33 -58 38 0 4 -7 8 -16 8 -9 0 -27 9 -41 20
-14 11 -32 20 -39 20 -8 0 -14 3 -14 8 0 4 -10 12 -23 18 -33 15 -111 58 -117
64 -3 3 -15 11 -27 18 -13 6 -33 18 -45 25 -13 6 -31 18 -40 26 -17 13 -18 10
-19 -35z"/>
<path d="M3620 4990 c0 -5 -6 -10 -14 -10 -7 0 -19 -7 -26 -15 -7 -8 -19 -15
-27 -15 -8 0 -29 -10 -46 -23 -18 -13 -50 -32 -72 -43 -22 -10 -42 -22 -45
-25 -3 -3 -21 -14 -40 -24 -19 -10 -37 -21 -40 -24 -4 -5 -35 -22 -121 -66
-10 -5 -19 -13 -19 -18 0 -4 -4 -5 -10 -2 -5 3 -10 2 -10 -3 0 -5 -8 -12 -17
-16 -10 -3 -31 -14 -48 -23 -16 -10 -59 -35 -95 -56 -36 -20 -72 -42 -80 -47
-8 -6 -22 -13 -30 -17 -8 -3 -39 -21 -67 -40 -29 -18 -53 -29 -53 -25 0 4 -4
2 -8 -3 -6 -9 -95 -63 -211 -127 -20 -11 -41 -24 -46 -28 -12 -10 -14 -624 -2
-636 4 -4 7 -2 7 4 0 7 6 12 14 12 8 0 21 6 28 13 7 7 20 16 28 20 8 3 38 20
65 37 28 16 59 34 70 40 11 5 38 21 60 35 22 14 47 28 55 32 8 3 32 17 53 31
22 13 60 35 85 50 99 55 121 68 167 95 26 15 51 27 56 27 5 0 9 4 9 9 0 5 9
13 21 16 11 4 44 21 72 38 29 17 62 37 74 44 13 7 26 13 29 12 4 0 10 4 13 9
3 5 33 24 66 42 33 18 69 38 80 44 10 6 25 17 33 24 7 6 19 12 26 12 8 0 19 7
26 15 7 9 15 13 17 11 3 -3 10 0 17 5 6 5 47 30 91 55 44 26 94 54 110 64 17
9 46 26 65 36 19 11 37 21 40 24 3 3 22 14 43 25 20 11 37 23 37 28 0 4 4 6 9
2 5 -3 15 1 23 8 7 8 30 22 51 32 20 9 35 20 32 24 -2 4 -26 18 -52 32 -26 13
-50 26 -53 29 -7 7 -37 25 -95 56 -27 14 -57 32 -65 38 -8 6 -35 22 -60 35
-25 13 -52 29 -60 35 -8 7 -33 21 -55 31 -22 11 -42 22 -45 25 -16 17 -60 39
-60 30z"/>
<path d="M6446 4974 c-9 -8 -16 -13 -16 -10 0 3 -25 -10 -55 -29 -30 -19 -56
-35 -59 -35 -3 0 -30 -16 -60 -35 -30 -19 -57 -35 -60 -35 -2 0 -44 -24 -93
-52 -48 -29 -92 -53 -96 -53 -4 0 -12 -7 -17 -15 -5 -8 -10 -11 -10 -7 0 5
-14 -1 -30 -13 l-31 -22 33 -19 c18 -11 44 -25 58 -31 14 -7 27 -15 30 -18 9
-10 153 -90 161 -90 5 0 9 -4 9 -10 0 -5 5 -10 11 -10 6 0 61 -29 121 -65 61
-36 114 -65 119 -65 5 0 9 -4 9 -8 0 -4 12 -13 28 -19 15 -7 43 -22 62 -33 67
-40 75 -44 83 -42 4 1 7 -2 7 -6 0 -5 18 -17 40 -28 22 -10 40 -22 40 -26 0
-5 5 -8 12 -8 6 0 32 -13 57 -28 89 -55 186 -110 192 -108 4 0 15 -6 25 -15
11 -9 39 -27 64 -40 25 -13 47 -26 50 -29 4 -4 22 -15 95 -54 10 -6 25 -17 33
-23 7 -7 17 -13 22 -13 5 0 50 -25 101 -55 50 -30 93 -55 95 -55 2 0 44 -24
94 -54 49 -30 90 -51 90 -48 0 4 4 2 8 -4 6 -9 64 -44 74 -44 2 0 2 142 1 316
l-1 316 -24 16 c-12 10 -32 22 -43 28 -34 19 -119 67 -147 83 -56 33 -374 217
-423 244 -27 16 -72 43 -100 59 -27 17 -70 42 -95 56 -25 14 -58 34 -75 44
-16 10 -37 21 -45 25 -8 4 -43 24 -78 45 -34 21 -65 38 -67 38 -3 0 -22 11
-43 23 -20 13 -50 32 -67 43 -16 10 -33 19 -37 19 -3 0 -10 3 -14 8 -11 11
-21 9 -38 -9z"/>
<path d="M4310 4570 c-14 -9 -49 -30 -78 -46 -80 -44 -89 -49 -106 -63 -9 -7
-16 -10 -16 -6 0 5 -8 1 -17 -7 -18 -15 -331 -198 -340 -198 -2 0 -23 -13 -46
-28 -23 -15 -55 -34 -72 -42 -16 -8 -37 -19 -45 -26 -8 -6 -35 -22 -60 -35
-25 -13 -47 -26 -50 -29 -3 -3 -16 -11 -30 -18 -14 -7 -50 -28 -80 -46 -30
-19 -58 -32 -62 -30 -3 2 -8 0 -10 -4 -4 -11 -314 -192 -328 -192 -5 0 -10 -4
-10 -10 0 -5 -4 -10 -10 -10 -5 0 -47 -22 -93 -50 -46 -27 -88 -50 -94 -50 -6
0 -13 -4 -15 -8 -1 -5 -34 -26 -73 -48 -38 -21 -79 -44 -90 -51 -11 -7 -27
-15 -35 -19 -37 -17 -68 -45 -66 -59 3 -20 12 -27 66 -58 145 -80 215 -122
218 -129 2 -5 8 -6 13 -2 5 3 9 0 9 -5 0 -6 4 -11 10 -11 5 0 54 -27 109 -59
55 -32 103 -55 108 -51 4 4 29 19 56 34 101 56 143 80 177 101 19 12 39 22 44
23 5 0 12 4 15 9 3 4 26 19 51 32 25 13 52 30 61 37 8 8 18 14 22 14 3 0 56
29 117 65 61 36 115 65 121 65 5 0 9 4 9 8 0 4 12 13 28 20 15 6 41 20 57 30
40 26 103 62 141 82 16 9 44 26 61 38 17 12 38 22 47 22 9 0 16 5 16 10 0 6 7
10 15 10 8 0 15 4 15 9 0 5 10 13 22 17 25 8 99 54 109 67 3 5 8 8 10 6 9 -5
49 13 49 22 0 5 4 9 9 9 5 0 80 41 168 92 87 50 168 96 180 102 13 6 23 14 23
19 0 4 5 7 10 7 13 0 174 92 178 102 2 5 9 8 17 8 7 0 18 6 24 14 10 12 -10
27 -116 87 -70 39 -129 76 -131 80 -2 5 -12 9 -23 9 -10 0 -19 5 -19 10 0 6
-4 10 -9 10 -11 0 -154 82 -162 93 -3 5 -13 9 -22 11 -9 1 -24 9 -34 18 -17
15 -20 15 -43 -2z"/>
<path d="M5715 4557 c-10 -7 -25 -18 -33 -24 -7 -7 -19 -13 -27 -13 -7 0 -15
-3 -17 -7 -4 -10 -76 -52 -100 -60 -10 -3 -18 -10 -18 -15 0 -5 -4 -6 -10 -3
-5 3 -10 2 -10 -3 0 -5 -8 -12 -17 -16 -10 -3 -31 -14 -48 -23 -16 -10 -72
-42 -122 -72 -85 -49 -110 -71 -83 -71 6 0 34 -15 63 -33 29 -18 59 -36 67
-40 8 -4 33 -18 55 -32 22 -14 47 -28 55 -32 8 -3 27 -15 43 -25 15 -11 27
-16 27 -11 0 4 4 3 8 -3 4 -6 34 -26 67 -44 33 -18 77 -44 97 -57 21 -12 42
-23 48 -23 5 0 10 -4 10 -9 0 -5 8 -11 18 -14 16 -6 60 -30 185 -103 32 -19
60 -34 63 -34 3 0 10 -5 17 -10 12 -11 259 -155 327 -192 19 -10 53 -30 75
-43 22 -14 47 -28 55 -32 8 -4 43 -24 78 -45 34 -21 66 -38 71 -38 5 0 11 -3
13 -7 2 -5 18 -16 36 -25 17 -10 47 -26 65 -35 17 -10 34 -21 35 -25 2 -5 7
-8 11 -8 9 0 227 -124 246 -140 8 -7 15 -9 15 -5 0 3 12 -3 26 -14 25 -20 27
-20 58 -3 17 9 33 20 34 25 2 4 8 7 14 7 5 0 63 32 129 70 66 39 124 70 130
70 5 0 9 5 9 10 0 6 4 10 10 10 5 0 43 20 85 45 41 24 75 41 75 37 0 -4 4 0
10 8 10 17 -5 40 -26 40 -8 0 -14 3 -14 8 0 4 -19 16 -43 27 -23 11 -44 22
-47 25 -7 7 -36 24 -95 56 -27 15 -53 31 -56 36 -3 5 -10 10 -15 10 -10 0 -87
42 -126 69 -15 11 -30 19 -32 19 -7 0 -109 61 -116 69 -3 4 -11 7 -19 9 -7 1
-37 18 -67 37 -30 19 -57 35 -59 35 -3 0 -22 11 -43 23 -35 23 -66 41 -177
103 -27 15 -52 30 -55 34 -3 3 -24 14 -47 25 -24 11 -43 23 -43 28 0 4 -4 7
-10 7 -5 0 -39 18 -75 40 -36 22 -67 40 -69 40 -3 0 -50 27 -106 60 -56 33
-106 60 -111 60 -5 0 -9 4 -9 9 0 5 -11 12 -24 15 -14 3 -31 12 -39 20 -7 8
-36 26 -63 40 -27 15 -71 40 -99 56 -27 16 -61 35 -75 42 -53 30 -75 43 -80
48 -9 9 -60 30 -73 29 -7 0 -21 -6 -32 -12z"/>
<path d="M9209 4205 c-30 -19 -57 -35 -61 -35 -4 0 -24 -12 -45 -26 -21 -14
-47 -30 -58 -36 -11 -5 -38 -20 -60 -33 -22 -14 -51 -30 -65 -37 -14 -7 -27
-15 -30 -19 -3 -4 -27 -19 -55 -33 -27 -15 -70 -40 -95 -56 -25 -16 -51 -29
-57 -29 -7 -1 -13 -5 -13 -11 0 -5 -4 -10 -9 -10 -5 0 -70 -36 -145 -80 -76
-44 -141 -80 -146 -80 -6 0 -10 -4 -10 -9 0 -5 -8 -11 -17 -14 -10 -4 -36 -17
-58 -31 -22 -14 -74 -44 -115 -68 -41 -23 -82 -47 -91 -53 -24 -14 -187 -108
-207 -119 -16 -8 -18 -41 -18 -380 -1 -204 -2 -501 -4 -661 -1 -159 -1 -341
-1 -402 l1 -113 30 18 c16 9 123 71 237 136 114 66 246 142 293 170 47 28 87
51 90 51 3 0 16 8 30 16 54 34 131 79 135 79 3 0 34 18 70 40 36 22 70 40 75
40 6 0 10 5 10 11 0 5 5 7 10 4 6 -3 10 -2 10 3 0 5 8 12 18 15 9 3 40 20 67
36 28 17 59 35 70 41 11 6 34 18 50 28 17 10 50 30 75 44 25 14 66 38 92 53
26 14 51 32 55 38 9 14 11 1537 2 1543 -3 2 -30 -12 -60 -31z"/>
<path d="M979 4197 c0 -1 0 -347 -1 -769 0 -680 1 -769 15 -783 9 -8 18 -15
22 -15 3 0 47 -24 98 -54 51 -29 112 -65 137 -78 25 -14 113 -65 195 -113 83
-48 175 -101 205 -118 90 -50 94 -52 104 -60 27 -20 166 -94 166 -89 0 4 5 -1
11 -10 5 -10 14 -18 19 -18 5 0 39 -18 75 -40 36 -22 67 -40 69 -40 3 0 44
-23 93 -51 48 -29 111 -64 139 -80 l50 -28 -3 737 c-1 405 -3 753 -3 773 0 26
-5 38 -17 42 -10 4 -36 18 -58 31 -22 14 -49 30 -60 36 -11 5 -42 23 -70 40
-27 17 -70 41 -95 55 -25 14 -58 34 -75 44 -52 32 -300 176 -391 226 -30 17
-59 36 -66 43 -7 7 -15 12 -19 12 -4 0 -54 28 -111 61 -97 59 -119 71 -202
118 -19 11 -53 31 -75 45 -22 15 -45 26 -51 26 -5 0 -10 5 -10 10 0 6 -6 10
-14 10 -8 0 -21 6 -28 13 -12 12 -47 29 -49 24z"/>
<path d="M4973 4110 c-35 -22 -63 -36 -63 -32 0 4 -4 2 -8 -4 -4 -6 -32 -24
-62 -41 -90 -49 -234 -134 -247 -145 -7 -6 -13 -7 -13 -2 0 5 -4 4 -8 -2 -4
-6 -22 -19 -39 -28 -39 -19 -41 -27 -10 -42 50 -25 92 -49 95 -56 2 -5 8 -8
14 -8 6 0 39 -18 74 -40 35 -22 66 -40 68 -40 4 0 35 -18 148 -85 9 -5 40 -22
68 -38 l50 -27 98 56 c53 31 113 66 132 76 159 91 196 113 202 122 4 6 8 7 8
2 0 -5 8 -2 18 6 9 9 34 23 54 33 21 9 36 20 34 24 -3 4 -24 17 -48 29 -48 25
-80 44 -88 52 -3 3 -30 18 -60 34 -30 15 -78 43 -107 62 -28 19 -56 34 -61 34
-5 0 -21 9 -36 21 -14 11 -26 17 -26 12 0 -4 -4 -3 -8 3 -7 12 -98 64 -110 64
-4 0 -35 -18 -69 -40z"/>
<path d="M4305 3727 c-11 -7 -22 -14 -25 -17 -3 -3 -16 -11 -29 -18 -26 -15
-73 -42 -123 -70 -31 -18 -129 -75 -166 -97 -9 -6 -52 -30 -95 -53 -70 -39
-89 -62 -53 -62 8 0 19 -7 26 -15 7 -8 16 -12 21 -9 5 3 9 1 9 -4 0 -5 8 -12
18 -16 9 -3 35 -17 57 -30 22 -14 51 -31 65 -38 14 -7 65 -36 113 -65 48 -29
92 -53 97 -53 6 0 10 -5 10 -12 0 -6 3 -8 6 -5 4 3 18 -3 32 -13 13 -11 30
-20 38 -20 7 0 14 -5 16 -12 3 -8 25 1 64 24 32 19 79 47 104 60 25 14 90 51
145 83 55 32 113 66 130 74 16 9 35 22 43 29 7 6 18 12 23 12 6 0 17 6 25 14
12 13 7 18 -39 43 -75 42 -120 68 -166 97 -22 15 -45 26 -51 26 -5 0 -10 5
-10 12 0 6 -3 8 -6 5 -4 -3 -18 3 -32 13 -13 11 -31 20 -38 20 -8 0 -14 3 -14
8 0 4 -10 12 -23 18 -12 6 -51 27 -85 47 -35 21 -65 37 -65 36 -1 0 -11 -6
-22 -12z"/>
<path d="M5715 3722 c-16 -9 -32 -19 -35 -22 -3 -3 -19 -12 -35 -21 -17 -9
-86 -49 -155 -89 -69 -40 -150 -87 -180 -103 -30 -17 -57 -33 -60 -37 -3 -3
-13 -9 -22 -13 -10 -3 -18 -11 -18 -17 0 -6 5 -8 10 -5 6 3 10 2 10 -2 0 -5
17 -17 38 -28 20 -11 65 -37 100 -57 34 -21 67 -38 72 -38 6 0 10 -4 10 -8 0
-5 16 -14 35 -22 19 -8 35 -17 35 -22 0 -4 5 -8 11 -8 7 0 35 -14 63 -32 28
-17 71 -42 96 -56 25 -13 49 -28 53 -32 7 -7 119 51 137 70 3 3 12 6 20 8 8 2
17 8 18 13 2 5 7 9 11 9 7 0 196 107 296 167 22 13 48 27 58 30 22 7 18 23 -9
37 -10 6 -35 20 -54 32 -31 18 -94 54 -183 103 -16 9 -36 21 -45 26 -121 74
-231 135 -240 135 -4 0 -20 -8 -37 -18z"/>
<path d="M7724 3341 c-5 -5 -29 -20 -54 -33 -132 -74 -577 -334 -588 -345 -7
-7 -17 -13 -22 -13 -4 0 -92 -49 -195 -110 -103 -60 -189 -110 -191 -110 -2 0
-33 -18 -69 -40 -36 -22 -68 -40 -70 -40 -3 0 -24 -11 -46 -26 -22 -14 -56
-34 -75 -45 -19 -10 -49 -28 -68 -38 -18 -11 -44 -25 -57 -33 -13 -7 -26 -15
-29 -18 -3 -3 -16 -11 -30 -18 -34 -16 -80 -43 -109 -64 -13 -9 -28 -15 -33
-12 -4 3 -8 0 -8 -5 0 -6 -7 -11 -15 -11 -8 0 -15 -4 -15 -9 0 -5 -10 -13 -22
-17 -13 -3 -34 -14 -48 -24 -14 -9 -47 -30 -75 -45 -27 -15 -104 -59 -170 -98
-66 -39 -122 -72 -125 -72 -7 -2 -67 -36 -106 -62 -19 -12 -34 -19 -34 -15 0
4 -4 2 -8 -4 -4 -6 -32 -24 -62 -41 -30 -16 -73 -41 -95 -55 -22 -13 -49 -28
-59 -31 -10 -4 -16 -11 -12 -15 9 -8 89 -56 126 -75 14 -7 44 -25 67 -40 24
-15 47 -27 53 -27 5 0 10 -4 10 -8 0 -4 12 -13 28 -19 15 -7 45 -23 67 -37 22
-14 51 -31 65 -39 57 -31 109 -62 175 -102 39 -23 90 -53 115 -67 25 -14 131
-76 235 -138 105 -62 206 -122 225 -133 19 -10 47 -28 62 -38 14 -11 31 -19
37 -19 6 0 11 -4 11 -9 0 -24 64 -17 90 9 7 7 42 27 110 63 30 16 62 36 71 43
9 8 19 11 22 7 4 -3 7 -1 7 5 0 7 4 12 9 12 5 0 38 17 72 38 61 37 85 51 204
118 28 15 52 32 53 36 2 4 10 8 18 8 8 0 27 9 42 19 44 31 272 161 283 161 5
0 9 4 9 9 0 5 10 13 23 18 13 4 68 34 123 66 l100 58 -3 766 c-1 421 -4 767
-6 769 -2 2 -8 0 -13 -5z"/>
<path d="M4980 3296 c-165 -98 -251 -146 -259 -146 -5 0 -11 -4 -13 -8 -1 -4
-52 -36 -113 -70 -60 -34 -105 -62 -98 -62 6 0 50 -22 98 -50 48 -27 91 -50
96 -50 5 0 9 -4 9 -9 0 -5 8 -11 18 -14 9 -4 37 -18 62 -33 25 -14 95 -56 157
-91 l112 -65 43 25 c43 25 85 48 168 95 48 27 103 59 135 79 11 7 35 20 53 29
17 9 32 20 32 23 0 4 6 8 13 8 6 0 31 12 55 25 l43 25 -98 59 c-54 33 -111 66
-128 74 -16 8 -37 19 -45 26 -8 6 -35 23 -60 36 -55 30 -152 87 -188 110 -15
9 -29 16 -32 16 -3 0 -30 -14 -60 -32z"/>
<path d="M2483 3098 c-1 -123 -3 -466 -5 -764 l-4 -540 66 -40 c36 -21 73 -42
82 -46 9 -4 35 -19 58 -33 23 -14 57 -35 76 -45 18 -11 120 -70 226 -131 106
-62 218 -126 248 -143 30 -16 57 -33 58 -38 2 -4 11 -8 20 -8 8 0 23 -6 31
-13 25 -21 298 -177 310 -177 6 0 11 4 11 10 0 5 17 18 38 28 47 24 258 148
294 173 14 11 28 19 31 19 3 0 42 23 87 50 45 28 83 50 86 50 2 0 27 15 56 33
29 19 60 37 68 40 8 4 29 16 45 26 32 20 130 77 205 119 25 14 47 29 48 34 2
4 7 8 12 8 8 0 103 53 165 91 17 10 41 24 55 31 14 7 27 15 30 19 3 3 20 12
38 20 38 17 39 20 10 39 -64 40 -311 180 -319 180 -5 0 -9 5 -9 10 0 6 -4 10
-9 10 -5 0 -49 23 -98 51 -48 29 -107 62 -130 75 -23 13 -92 53 -153 89 -61
36 -115 65 -121 65 -5 0 -9 4 -9 9 0 5 -17 16 -37 25 -39 17 -94 47 -103 56
-3 3 -14 10 -25 16 -12 6 -119 68 -238 138 -120 69 -237 137 -260 150 -23 13
-58 33 -77 45 -19 11 -42 24 -50 28 -8 3 -39 21 -68 40 -29 18 -54 33 -57 33
-3 0 -34 18 -70 40 -36 22 -67 40 -68 40 -2 0 -56 32 -121 70 -64 39 -118 70
-120 70 -2 0 -34 18 -70 40 -36 22 -70 40 -76 40 -5 0 -10 4 -10 9 0 5 -8 11
-17 14 -10 3 -42 20 -71 36 -29 17 -54 31 -55 31 -1 0 -3 -100 -4 -222z"/>
<path d="M5055 1796 c-24 -16 -384 -224 -475 -274 -19 -10 -95 -53 -168 -95
-73 -43 -137 -77 -142 -77 -6 0 -10 -4 -10 -9 0 -5 -11 -12 -25 -15 -14 -4
-25 -11 -25 -16 0 -6 -5 -10 -10 -10 -6 0 -58 -27 -117 -60 -58 -33 -109 -60
-114 -60 -5 0 -9 -4 -9 -8 0 -4 -12 -13 -27 -19 -53 -22 -168 -90 -167 -99 1
-5 14 -16 30 -25 16 -9 47 -27 69 -39 22 -13 57 -33 77 -44 20 -12 74 -43 119
-70 46 -27 99 -57 118 -68 20 -11 72 -41 116 -67 44 -26 87 -50 95 -54 8 -4
33 -18 55 -32 22 -14 51 -31 65 -38 14 -6 27 -14 30 -17 3 -3 23 -14 45 -25
22 -11 42 -23 45 -26 3 -3 57 -35 120 -71 63 -36 131 -75 150 -87 19 -11 55
-32 80 -46 25 -14 60 -34 79 -45 l34 -19 64 35 c35 19 88 50 118 69 30 19 56
35 59 35 3 0 69 38 148 84 79 46 161 94 183 106 136 77 201 115 207 124 4 6 8
7 8 2 0 -5 7 -2 16 5 18 14 42 29 89 53 17 9 37 20 45 26 24 16 291 170 295
170 2 0 27 14 54 32 l51 31 -27 17 c-16 9 -64 36 -108 60 -44 23 -84 46 -90
50 -10 8 -61 37 -130 75 -68 37 -152 84 -355 201 -107 61 -217 124 -245 139
-27 15 -54 31 -60 35 -5 4 -30 19 -55 32 -25 14 -93 53 -151 87 -59 33 -113
61 -121 61 -7 0 -22 -6 -33 -14z"/>
</g>
</svg>
